<svg width="109" height="24" viewBox="0 0 109 24" fill="none" xmlns="http://www.w3.org/2000/svg">
<path d="M3.97848 2.57145C2.81551 1.10758 4.71532 -0.810287 6.16539 0.36375L12.8471 3.98789C13.4158 4.44835 14.225 4.44835 14.7937 3.98789L21.4754 0.363745C22.9254 -0.810292 24.8252 1.10759 23.6623 2.57146L18.3035 7.53109C17.8474 8.10522 17.8474 8.92211 18.3035 9.49624L23.6623 16.2415C24.8252 17.7054 22.9254 19.6232 21.4754 18.4492L14.7937 13.0394C14.225 12.579 13.4158 12.579 12.8471 13.0394L6.16538 18.4492C4.71531 19.6233 2.81552 17.7054 3.97849 16.2415L9.33726 9.49624C9.79338 8.92211 9.79338 8.10522 9.33726 7.53109L3.97848 2.57145Z" fill="#BDBDBD"/>
<path d="M0.151513 10.4327C-0.529416 8.14131 1.17021 5.83522 3.53991 5.83522H24.1002C26.4699 5.83522 28.1695 8.14131 27.4886 10.4327L25.4392 17.3289C24.317 21.1053 20.8738 23.6915 16.9682 23.6915H10.6719C6.76629 23.6915 3.32312 21.1053 2.20086 17.3289L0.151513 10.4327Z" fill="#BDBDBD"/>
<path d="M11.1673 12.0849C11.1673 13.0711 10.3754 13.8706 9.39849 13.8706C8.42161 13.8706 7.6297 13.0711 7.6297 12.0849C7.6297 11.0987 8.42161 10.2993 9.39849 10.2993C10.3754 10.2993 11.1673 11.0987 11.1673 12.0849Z" fill="#5F5F5F"/>
<path d="M20.0113 12.0849C20.0113 13.0711 19.2194 13.8706 18.2425 13.8706C17.2656 13.8706 16.4737 13.0711 16.4737 12.0849C16.4737 11.0987 17.2656 10.2993 18.2425 10.2993C19.2194 10.2993 20.0113 11.0987 20.0113 12.0849Z" fill="#5F5F5F"/>
<path fill-rule="evenodd" clip-rule="evenodd" d="M9.54703 16.0538C9.81796 15.6435 10.3671 15.5326 10.7735 15.8061C12.0348 16.655 12.9658 16.9954 13.8205 16.9954C14.6752 16.9954 15.6062 16.655 16.8675 15.8061C17.2739 15.5326 17.823 15.6435 18.0939 16.0538C18.3649 16.464 18.2551 17.0183 17.8487 17.2919C16.4567 18.2286 15.1768 18.781 13.8205 18.781C12.4642 18.781 11.1842 18.2286 9.79231 17.2919C9.38591 17.0183 9.27609 16.464 9.54703 16.0538Z" fill="#5F5F5F"/>
<path d="M86.852 23.6915C86.1251 23.6915 85.5358 23.1022 85.5358 22.3753V7.7635C85.5358 7.03658 86.1251 6.4473 86.852 6.4473H87.4124C88.1394 6.4473 88.7286 7.03658 88.7286 7.7635V9.14862C88.7286 9.22413 88.7898 9.28535 88.8654 9.28535C88.9223 9.28535 88.9731 9.25 88.9941 9.19707C89.3564 8.28306 89.9312 7.56698 90.7183 7.04884C91.541 6.50386 92.5178 6.23136 93.6489 6.23136C94.8006 6.23136 95.762 6.50386 96.5333 7.04884C97.2908 7.56715 97.8599 8.28353 98.2406 9.19798C98.2625 9.25055 98.3136 9.28535 98.3705 9.28535C98.4257 9.28535 98.4755 9.25266 98.4985 9.20257C98.9116 8.30585 99.5521 7.59308 100.42 7.06427C101.315 6.509 102.379 6.23136 103.613 6.23136C105.176 6.23136 106.456 6.72494 107.454 7.71208C108.451 8.68895 108.95 10.1645 108.95 12.1388V22.3753C108.95 23.1022 108.36 23.6915 107.634 23.6915H106.903C106.177 23.6915 105.587 23.1022 105.587 22.3753V12.4473C105.587 11.2751 105.268 10.4319 104.631 9.91774C103.993 9.39332 103.232 9.13111 102.348 9.13111C101.258 9.13111 100.41 9.47044 99.8032 10.1491C99.2068 10.8175 98.9086 11.6658 98.9086 12.6941V22.3753C98.9086 23.1022 98.3193 23.6915 97.5924 23.6915H96.8623C96.1354 23.6915 95.5461 23.1022 95.5461 22.3753V12.2314C95.5461 11.2956 95.2582 10.545 94.6824 9.97943C94.1065 9.41388 93.3507 9.13111 92.415 9.13111C91.7775 9.13111 91.1862 9.30077 90.6412 9.6401C90.1065 9.96915 89.6746 10.4319 89.3456 11.0283C89.0268 11.6144 88.8674 12.2931 88.8674 13.0643V22.3753C88.8674 23.1022 88.2782 23.6915 87.5513 23.6915H86.852Z" fill="#5F5F5F"/>
<path d="M79.9436 16.5656V7.7635C79.9436 7.03658 80.5329 6.4473 81.2598 6.4473H81.959C82.6859 6.4473 83.2752 7.03658 83.2752 7.7635V22.3753C83.2752 23.1022 82.6859 23.6915 81.959 23.6915H81.3215C80.5946 23.6915 80.0053 23.1022 80.0053 22.3753V20.8116C80.0053 20.7495 79.955 20.6992 79.8929 20.6992C79.8487 20.6992 79.8086 20.7253 79.79 20.7654C79.3779 21.6514 78.7505 22.3954 77.9076 22.9974C77.0439 23.6144 75.9642 23.9177 74.6685 23.9075C73.558 23.9075 72.576 23.6658 71.7225 23.1825C70.8793 22.6992 70.2161 21.9743 69.7328 21.0077C69.2598 20.0411 69.0233 18.8432 69.0233 17.4139V7.7635C69.0233 7.03658 69.6126 6.4473 70.3395 6.4473H71.0387C71.7656 6.4473 72.3549 7.03658 72.3549 7.7635V17.0283C72.3549 18.1902 72.684 19.1208 73.3421 19.8201C74.0002 20.5193 74.8485 20.8638 75.887 20.8535C76.5143 20.8535 77.1364 20.6992 77.7534 20.3907C78.3806 20.0823 78.8999 19.6093 79.3112 18.9717C79.7328 18.3342 79.9436 17.5321 79.9436 16.5656Z" fill="#BDBDBD"/>
<path d="M62.6908 2.02571C62.6908 1.29879 63.2801 0.709512 64.007 0.709512H64.7062C65.4331 0.709512 66.0224 1.29879 66.0224 2.02571V18.9871C66.0327 19.7172 66.1304 20.2365 66.3155 20.545C66.5005 20.8535 66.8656 20.9974 67.4106 20.9769C67.7088 20.9769 67.9298 20.9614 68.0738 20.9306C68.2838 20.8706 68.5 21.0001 68.5486 21.213L68.8761 22.6457C68.988 23.1354 68.6923 23.6221 68.1972 23.7069C67.8373 23.7789 67.4311 23.8149 66.9787 23.8149C65.5391 23.8355 64.4594 23.491 63.7396 22.7815C63.0301 22.072 62.6805 21.0386 62.6908 19.6812V2.02571Z" fill="#5F5F5F"/>
<path d="M55.8955 2.02571C55.8955 1.29879 56.4847 0.709512 57.2117 0.709512H57.9109C58.6378 0.709512 59.2271 1.29879 59.2271 2.02571V18.9871C59.2374 19.7172 59.3351 20.2365 59.5201 20.545C59.7052 20.8535 60.0703 20.9974 60.6153 20.9769C60.9135 20.9769 61.1345 20.9614 61.2785 20.9306C61.4885 20.8706 61.7047 21.0001 61.7533 21.213L62.0808 22.6457C62.1927 23.1354 61.897 23.6221 61.4019 23.7069C61.042 23.7789 60.6358 23.8149 60.1834 23.8149C58.7438 23.8355 57.6641 23.491 56.9443 22.7815C56.2348 22.072 55.8852 21.0386 55.8955 19.6812V2.02571Z" fill="#5F5F5F"/>
<path d="M44.473 24C42.3959 24 40.5707 23.5219 38.9974 22.5656C37.4344 21.6093 36.2108 20.2519 35.3265 18.4936C34.4524 16.7249 34.0154 14.6324 34.0154 12.2159C34.0154 9.76864 34.4576 7.66581 35.3419 5.90745C36.2365 4.13882 37.4602 2.78149 39.0129 1.83548C40.5656 0.879177 42.3342 0.401028 44.3188 0.401028C45.5527 0.401028 46.7044 0.586118 47.7738 0.956298C48.8535 1.3162 49.8098 1.83548 50.6427 2.51414C51.4859 3.1928 52.1799 3.99486 52.7249 4.92031C53.0191 5.40514 53.2628 5.91884 53.4559 6.46139C53.73 7.23135 53.1027 7.97429 52.2854 7.97429H51.2701C50.6949 7.97429 50.1982 7.59474 49.9592 7.07147C49.8069 6.73815 49.6337 6.42726 49.4396 6.13882C49.0797 5.59383 48.6478 5.13111 48.144 4.75064C47.6401 4.3599 47.0694 4.06684 46.4319 3.87147C45.8046 3.66581 45.1054 3.56298 44.3342 3.56298C43.0386 3.56298 41.8715 3.89717 40.8329 4.56555C39.7943 5.22365 38.9717 6.19537 38.365 7.48072C37.7584 8.76607 37.455 10.3393 37.455 12.2005C37.455 14.0617 37.7584 15.635 38.365 16.9203C38.9717 18.2057 39.8046 19.1825 40.8638 19.8509C41.9229 20.509 43.126 20.838 44.473 20.838C45.7172 20.838 46.8021 20.5861 47.7275 20.0823C48.653 19.5681 49.3728 18.8483 49.8869 17.9229C50.3884 17.0201 50.6453 15.9559 50.6576 14.7303C50.6581 14.6821 50.7018 14.6457 50.7492 14.6545C50.8412 14.6717 50.8287 14.8072 50.7351 14.8072H45.5533C45.2463 14.8072 44.9974 14.5583 44.9974 14.2513V13.2545C44.9974 12.5276 45.5867 11.9383 46.3136 11.9383H52.7198C53.4467 11.9383 54.036 12.5276 54.036 13.2545V14.5604C54.036 16.4936 53.6247 18.1645 52.8021 19.5733C51.9897 20.982 50.8586 22.072 49.4087 22.8432C47.9692 23.6144 46.3239 24 44.473 24Z" fill="#BDBDBD"/>
</svg>
